# xmcd
#
# Track frame offsets:
#	150
#	18632
#	43822
#	61082
#	77997
#	97117
#	116107
#	138205
#	155035
#	172462
#	187962
#	215000
#
# Disc length: 3178 seconds
#
# Revision: 2
# Processed by: cddbd v1.5.2PL0 Copyright (c) Steve Scherf et al.
# Submitted via: EZCDAudioConverter 7.1.2.1
#
DISCID=b40c680c
DTITLE=Clint Black - Spend My Time
DYEAR=2004
DGENRE=Country
TTITLE0=Spend My Time
TTITLE1=We All Fall Down
TTITLE2=My Imagination
TTITLE3=She's Leavin'
TTITLE4=Everything I Need
TTITLE5=What Ever Happened
TTITLE6=A Mind To
TTITLE7=Just Like You And Me
TTITLE8=The Boogie Man
TTITLE9=Someone Else's Tears
TTITLE10=Haywire
TTITLE11=A Lover's Clown
EXTD=
EXTT0=
EXTT1=
EXTT2=
EXTT3=
EXTT4=
EXTT5=
EXTT6=
EXTT7=
EXTT8=
EXTT9=
EXTT10=
EXTT11=
PLAYORDER=
